<?xml version="1.0" encoding="UTF-8" standalone="no"?>
<svg
   xmlns:dc="http://purl.org/dc/elements/1.1/"
   xmlns:cc="http://creativecommons.org/ns#"
   xmlns:rdf="http://www.w3.org/1999/02/22-rdf-syntax-ns#"
   xmlns:svg="http://www.w3.org/2000/svg"
   xmlns="http://www.w3.org/2000/svg"
   xmlns:sodipodi="http://sodipodi.sourceforge.net/DTD/sodipodi-0.dtd"
   xmlns:inkscape="http://www.inkscape.org/namespaces/inkscape"
   xml:space="preserve"
   version="1.1"
   style="clip-rule:evenodd;fill-rule:evenodd;image-rendering:optimizeQuality;shape-rendering:geometricPrecision;text-rendering:geometricPrecision"
   viewBox="0 0 847 847"
   x="0px"
   y="0px"
   id="svg4211"
   inkscape:version="0.91 r13725"
   sodipodi:docname="mask.svg"
   width="847"
   height="847"><metadata
     id="metadata4227"><rdf:RDF><cc:Work
         rdf:about=""><dc:format>image/svg+xml</dc:format><dc:type
           rdf:resource="http://purl.org/dc/dcmitype/StillImage" /><dc:title></dc:title></cc:Work></rdf:RDF></metadata><sodipodi:namedview
     pagecolor="#ffffff"
     bordercolor="#666666"
     borderopacity="1"
     objecttolerance="10"
     gridtolerance="10"
     guidetolerance="10"
     inkscape:pageopacity="0"
     inkscape:pageshadow="2"
     inkscape:window-width="1440"
     inkscape:window-height="855"
     id="namedview4225"
     showgrid="false"
     inkscape:zoom="0.43211153"
     inkscape:cx="318.26562"
     inkscape:cy="699.38018"
     inkscape:window-x="0"
     inkscape:window-y="1"
     inkscape:window-maximized="1"
     inkscape:current-layer="svg4211" /><defs
     id="defs4213"><style
       type="text/css"
       id="style4215">
   
    .fil0 {fill:black}
   
  </style></defs><path
     id="foreground"
     style="color:#000000;clip-rule:nonzero;display:inline;overflow:visible;visibility:visible;opacity:1;isolation:auto;mix-blend-mode:normal;color-interpolation:sRGB;color-interpolation-filters:linearRGB;solid-color:#000000;solid-opacity:1;fill:#000000;fill-opacity:1;fill-rule:nonzero;stroke:none;stroke-width:1;stroke-linecap:butt;stroke-linejoin:miter;stroke-miterlimit:4;stroke-dasharray:8, 8;stroke-dashoffset:0;stroke-opacity:1;color-rendering:auto;image-rendering:auto;shape-rendering:auto;text-rendering:auto;enable-background:accumulate"
     d="m 428.68006,485.88733 c 9.69931,0 17.63511,7.9358 17.63511,17.63511 0,9.6993 -7.9358,17.6351 -17.63511,17.6351 -9.6993,0 -16.75335,-7.9358 -16.75335,-17.6351 0,-9.69931 7.05405,-17.63511 16.75335,-17.63511 z m 184.39189,-70.31654 c 19.69633,-0.16252 40.34547,4.90133 60.73606,15.64772 -30.86143,67.01339 -98.75658,90.82078 -164.00647,56.43233 21.21724,-46.07171 59.93847,-71.72248 103.27041,-72.08005 z m -367.90202,0 c 43.33193,0.35757 82.05317,26.00834 103.27041,72.08005 -65.24989,34.38845 -133.14504,10.58106 -164.00647,-56.43233 20.39059,-10.74639 41.03972,-15.81024 60.73606,-15.64772 z m 183.51013,-4.63265 c 9.69931,0 17.63511,7.9358 17.63511,17.6351 0,9.69931 -7.9358,17.63511 -17.63511,17.63511 -9.6993,0 -16.75335,-7.9358 -16.75335,-17.63511 0,-9.6993 7.05405,-17.6351 16.75335,-17.6351 z m 0,-74.06744 c 9.69931,0 17.63511,7.9358 17.63511,17.6351 0,9.69931 -7.9358,16.75335 -17.63511,16.75335 -9.6993,0 -16.75335,-7.05404 -16.75335,-16.75335 0,-9.6993 7.05405,-17.6351 16.75335,-17.6351 z m -8.90021,-48.73936 c -182.21972,0.12963 -361.147653,38.54407 -342.92012,118.39802 33.5067,141.96259 156.07068,293.62449 292.74273,155.18892 51.14181,-50.26005 67.89515,-50.26005 119.03696,0 C 625.31147,700.15385 747.87545,548.49195 781.38215,406.52936 799.2928,328.61802 607.78431,287.99758 419.77985,288.13134 Z"
     inkscape:connector-curvature="0"
     transform="matrix(1.1980669,0,0,1.1980669,-90.545123,-118.31758)" /></svg>