<?xml version="1.0" encoding="UTF-8" standalone="no"?>
<svg
   xmlns:dc="http://purl.org/dc/elements/1.1/"
   xmlns:cc="http://creativecommons.org/ns#"
   xmlns:rdf="http://www.w3.org/1999/02/22-rdf-syntax-ns#"
   xmlns:svg="http://www.w3.org/2000/svg"
   xmlns="http://www.w3.org/2000/svg"
   xmlns:sodipodi="http://sodipodi.sourceforge.net/DTD/sodipodi-0.dtd"
   xmlns:inkscape="http://www.inkscape.org/namespaces/inkscape"
   height="24"
   width="24"
   sodipodi:docname="palette.svg"
   inkscape:version="1.0 (4035a4f, 2020-05-01)"
   id="svg2"
   xml:space="preserve"
   viewBox="0 0 24 24"
   y="0px"
   x="0px"
   version="1.1"><metadata
   id="metadata14"><rdf:RDF><cc:Work
       rdf:about=""><dc:format>image/svg+xml</dc:format><dc:type
         rdf:resource="http://purl.org/dc/dcmitype/StillImage" /><dc:title></dc:title></cc:Work></rdf:RDF></metadata><defs
   id="defs12" /><sodipodi:namedview
   inkscape:document-rotation="0"
   inkscape:current-layer="svg2"
   inkscape:window-maximized="0"
   inkscape:window-y="23"
   inkscape:window-x="0"
   inkscape:cy="2.9661017"
   inkscape:cx="7.3220342"
   inkscape:zoom="11.8"
   showgrid="false"
   id="namedview10"
   inkscape:window-height="749"
   inkscape:window-width="1192"
   inkscape:pageshadow="2"
   inkscape:pageopacity="0"
   guidetolerance="10"
   gridtolerance="10"
   objecttolerance="10"
   borderopacity="1"
   bordercolor="#666666"
   pagecolor="#ffffff" /><path
   style="stroke-width:1.71421"
   id="foreground"
   d="M 12.298587,0.01448224 C 9.6124603,0.14624644 6.9553931,1.1787148 4.8122942,3.1315386 -0.08621723,7.5951356 -0.43809997,15.184323 4.0254971,20.082835 8.4890942,24.981346 16.078281,25.333229 20.976793,20.869631 l 1.265572,-1.155085 c 0.696891,-0.635018 0.748852,-1.723765 0.113841,-2.420656 -0.635017,-0.696891 -1.723766,-0.748853 -2.420657,-0.113841 -0.699425,0.637327 -1.786678,0.58894 -2.424006,-0.110481 -0.637333,-0.699425 -0.585598,-1.786678 0.113824,-2.424005 l 3.800067,-3.461908 C 23.524979,9.2705198 23.676726,6.0178789 21.76359,3.9183357 19.252817,1.162923 15.752177,-0.15492897 12.298587,0.01448224 Z M 10.788606,2.9038696 c 0.906524,-0.012925 1.766655,0.7797066 1.734301,1.7175616 0.003,0.477253 -0.204123,0.9495152 -0.559128,1.2689199 C 11.19241,6.6457575 9.7658831,6.3970879 9.2953646,5.4249688 8.894456,4.7264227 9.1233659,3.8118786 9.7071776,3.3056384 9.9017809,3.1368919 10.137191,3.0158823 10.400229,2.9607868 c 0.12886,-0.036641 0.258873,-0.05507 0.388377,-0.056917 z m 5.996399,1.4898926 c 0.906524,-0.012925 1.770004,0.7797066 1.73765,1.7175616 0.0029,0.477253 -0.204124,0.9528633 -0.559129,1.2722679 C 17.192158,8.1389978 15.762282,7.8903288 15.291764,6.9182095 14.890855,6.219664 15.119765,5.3051194 15.703577,4.798879 15.898181,4.6301327 16.13359,4.5057749 16.396629,4.4506794 c 0.128859,-0.03664 0.258872,-0.05507 0.388376,-0.056917 z M 5.7196222,7.5208629 C 6.6261461,7.5079319 7.4896254,8.3005695 7.4572723,9.2384248 7.4602723,9.7156778 7.2531491,10.187939 6.898144,10.507344 6.1267752,11.262751 4.6969001,11.014081 4.2263815,10.041962 3.8254729,9.3434158 4.0543832,8.4322195 4.6381946,7.9259797 4.8327983,7.7572325 5.0682068,7.6328761 5.3312457,7.5777801 5.4601065,7.5411387 5.5901188,7.5227092 5.7196222,7.5208629 Z m 0.9307645,6.1102341 c 0.9065239,-0.01293 1.7666551,0.779707 1.7343019,1.717562 0.003,0.477254 -0.2041231,0.949515 -0.5591281,1.268919 -0.7713691,0.755407 -2.1978961,0.506737 -2.6684147,-0.465382 -0.4009086,-0.698545 -0.1753464,-1.609742 0.4084651,-2.115982 0.1946037,-0.168747 0.4333604,-0.293104 0.6963993,-0.3482 0.12886,-0.03664 0.2588729,-0.05507 0.3883765,-0.05692 z" /><text
   style="font-weight:bold;font-size:5px;line-height:0%;font-family:'Helvetica Neue', Helvetica, Arial-Unicode, Arial, Sans-serif;fill:#000000"
   id="text6"
   font-weight="bold"
   font-size="5px"
   y="31"
   x="0">Created by icon 54</text>
<text
   style="font-weight:bold;font-size:5px;line-height:0%;font-family:'Helvetica Neue', Helvetica, Arial-Unicode, Arial, Sans-serif;fill:#000000"
   id="text8"
   font-weight="bold"
   font-size="5px"
   y="36"
   x="0">from the Noun Project</text>
</svg>
