<?xml version="1.0" encoding="UTF-8" standalone="no"?>
<svg
   xmlns:dc="http://purl.org/dc/elements/1.1/"
   xmlns:cc="http://creativecommons.org/ns#"
   xmlns:rdf="http://www.w3.org/1999/02/22-rdf-syntax-ns#"
   xmlns:svg="http://www.w3.org/2000/svg"
   xmlns="http://www.w3.org/2000/svg"
   xmlns:sodipodi="http://sodipodi.sourceforge.net/DTD/sodipodi-0.dtd"
   xmlns:inkscape="http://www.inkscape.org/namespaces/inkscape"
   height="24"
   width="24"
   sodipodi:docname="fit_to_height.svg"
   inkscape:version="1.0 (4035a4f, 2020-05-01)"
   id="svg4211"
   y="0px"
   x="0px"
   viewBox="0 0 24 24"
   style="clip-rule:evenodd;fill-rule:evenodd;image-rendering:optimizeQuality;shape-rendering:geometricPrecision;text-rendering:geometricPrecision"
   version="1.1"
   xml:space="preserve"><metadata
     id="metadata4227"><rdf:RDF><cc:Work
         rdf:about=""><dc:format>image/svg+xml</dc:format><dc:type
           rdf:resource="http://purl.org/dc/dcmitype/StillImage" /><dc:title></dc:title></cc:Work></rdf:RDF></metadata><sodipodi:namedview
     inkscape:document-rotation="0"
     inkscape:current-layer="svg4211"
     inkscape:window-maximized="1"
     inkscape:window-y="23"
     inkscape:window-x="0"
     inkscape:cy="18.793325"
     inkscape:cx="17.765157"
     inkscape:zoom="10.667508"
     showgrid="false"
     id="namedview4225"
     inkscape:window-height="1005"
     inkscape:window-width="1680"
     inkscape:pageshadow="2"
     inkscape:pageopacity="0"
     guidetolerance="10"
     gridtolerance="10"
     objecttolerance="10"
     borderopacity="1"
     bordercolor="#666666"
     pagecolor="#ffffff" /><defs
     id="defs4213"><rect
       id="rect59"
       height="54.933167"
       width="61.401405"
       y="-6.5619826"
       x="-14.530104" /><style
       id="style4215"
       type="text/css">
   
    .fil0 {fill:black}
   
  </style></defs><g
     style="font-size:48px;line-height:1.25;font-family:sans-serif;white-space:pre;shape-inside:url(#rect59)"
     id="foreground"
     transform="matrix(0.54179894,0,0,0.54179894,13.37672,-1.5930475)"
     aria-label="↕"><path
       id="path63"
       d="m -3.0683594,2.9402927 h 1.0546875 q 1.03125002,2.203125 2.71875002,4.359375 1.71093748,2.1328125 5.17968748,5.1796873 v 1.875 Q 1.8769531,12.737168 -1.4042969,9.7840427 V 40.393418 q 3.28125,-2.953125 7.2890625,-4.546875 v 1.851562 q -3.46875,3.046875 -5.17968748,5.179688 -1.6875,2.15625 -2.71875002,4.359375 h -1.0546875 q -1.0078125,-2.203125 -2.71875,-4.359375 -1.7109375,-2.132813 -5.1796876,-5.179688 v -1.851562 q 4.0078126,1.59375 7.2890626,4.546875 V 9.7840427 q -3.28125,2.9531253 -7.2890626,4.5703123 v -1.875 q 3.4687501,-3.0468748 5.1796876,-5.1796873 1.7109375,-2.15625 2.71875,-4.359375 z" /></g></svg>
