<?xml version="1.0" encoding="UTF-8" standalone="no"?>
<svg
   xmlns:dc="http://purl.org/dc/elements/1.1/"
   xmlns:cc="http://creativecommons.org/ns#"
   xmlns:rdf="http://www.w3.org/1999/02/22-rdf-syntax-ns#"
   xmlns:svg="http://www.w3.org/2000/svg"
   xmlns="http://www.w3.org/2000/svg"
   xmlns:sodipodi="http://sodipodi.sourceforge.net/DTD/sodipodi-0.dtd"
   xmlns:inkscape="http://www.inkscape.org/namespaces/inkscape"
   version="1.1"
   x="0px"
   y="0px"
   viewBox="0 0 16 20"
   style="enable-background:new 0 0 16 16;"
   xml:space="preserve"
   id="svg2"
   inkscape:version="0.92.2 5c3e80d, 2017-08-06"
   sodipodi:docname="palette.svg"><metadata
     id="metadata14"><rdf:RDF><cc:Work
         rdf:about=""><dc:format>image/svg+xml</dc:format><dc:type
           rdf:resource="http://purl.org/dc/dcmitype/StillImage" /></cc:Work></rdf:RDF></metadata><defs
     id="defs12" /><sodipodi:namedview
     pagecolor="#ffffff"
     bordercolor="#666666"
     borderopacity="1"
     objecttolerance="10"
     gridtolerance="10"
     guidetolerance="10"
     inkscape:pageopacity="0"
     inkscape:pageshadow="2"
     inkscape:window-width="1192"
     inkscape:window-height="749"
     id="namedview10"
     showgrid="false"
     inkscape:zoom="11.8"
     inkscape:cx="-2.6355929"
     inkscape:cy="3.220339"
     inkscape:window-x="0"
     inkscape:window-y="0"
     inkscape:window-maximized="0"
     inkscape:current-layer="svg2" /><path
     d="M 7.6523438 1.0078125 C 6.0853709 1.0846782 4.5353498 1.6869768 3.2851562 2.8261719 C 0.42757096 5.4300464 0.22229739 9.8572585 2.8261719 12.714844 C 5.4300464 15.572429 9.8572585 15.777703 12.714844 13.173828 L 13.453125 12.5 C 13.859662 12.129557 13.889974 11.494428 13.519531 11.087891 C 13.149089 10.681354 12.513959 10.651042 12.107422 11.021484 C 11.699407 11.393274 11.065149 11.365047 10.693359 10.957031 C 10.32157 10.549016 10.35175 9.9147584 10.759766 9.5429688 L 12.976562 7.5234375 C 14.201348 6.4073951 14.289871 4.5099413 13.173828 3.2851562 C 11.709149 1.6777645 9.6670231 0.90898515 7.6523438 1.0078125 z M 6.7714844 2.6933594 C 7.3003124 2.6858158 7.8020766 3.1482074 7.7832031 3.6953125 C 7.7849532 3.9737218 7.6641259 4.2492197 7.4570312 4.4355469 C 7.0070471 4.8762192 6.1748713 4.7311558 5.9003906 4.1640625 C 5.6665174 3.7565601 5.8000538 3.2230536 6.140625 2.9277344 C 6.2541485 2.8292948 6.3914764 2.7587029 6.5449219 2.7265625 C 6.6200935 2.705188 6.6959375 2.694437 6.7714844 2.6933594 z M 10.269531 3.5625 C 10.798359 3.5549564 11.302077 4.017348 11.283203 4.5644531 C 11.284953 4.8428624 11.164126 5.1203134 10.957031 5.3066406 C 10.507047 5.7473127 9.672918 5.6022497 9.3984375 5.0351562 C 9.1645638 4.6276542 9.2981006 4.0941474 9.6386719 3.7988281 C 9.7521954 3.7003886 9.8895233 3.6278435 10.042969 3.5957031 C 10.11814 3.5743286 10.193984 3.5635777 10.269531 3.5625 z M 3.8144531 5.3867188 C 4.343281 5.3791753 4.8469984 5.8415668 4.828125 6.3886719 C 4.8298748 6.6670814 4.7090481 6.9425787 4.5019531 7.1289062 C 4.051969 7.5695785 3.2178401 7.4245151 2.9433594 6.8574219 C 2.7094862 6.4499195 2.8430228 5.9183659 3.1835938 5.6230469 C 3.2971174 5.5246072 3.4344448 5.4520626 3.5878906 5.4199219 C 3.6630622 5.3985473 3.7389063 5.3877964 3.8144531 5.3867188 z M 4.3574219 8.9511719 C 4.8862498 8.9436284 5.3880141 9.40602 5.3691406 9.953125 C 5.3708904 10.231535 5.2500638 10.507032 5.0429688 10.693359 C 4.5929846 11.134032 3.7608088 10.988968 3.4863281 10.421875 C 3.2524549 10.014373 3.3840384 9.482819 3.7246094 9.1875 C 3.838133 9.0890603 3.9774136 9.0165157 4.1308594 8.984375 C 4.2060309 8.9630005 4.281875 8.9522495 4.3574219 8.9511719 z "
     id="foreground" /><text
     x="0"
     y="31"
     font-size="5px"
     font-weight="bold"
     id="text6"
     style="font-weight:bold;font-size:5px;line-height:0%;font-family:'Helvetica Neue', Helvetica, Arial-Unicode, Arial, Sans-serif;fill:#000000">Created by icon 54</text>
<text
     x="0"
     y="36"
     font-size="5px"
     font-weight="bold"
     id="text8"
     style="font-weight:bold;font-size:5px;line-height:0%;font-family:'Helvetica Neue', Helvetica, Arial-Unicode, Arial, Sans-serif;fill:#000000">from the Noun Project</text>
</svg>