<?xml version="1.0" encoding="UTF-8" standalone="no"?>
<svg
   xmlns:dc="http://purl.org/dc/elements/1.1/"
   xmlns:cc="http://creativecommons.org/ns#"
   xmlns:rdf="http://www.w3.org/1999/02/22-rdf-syntax-ns#"
   xmlns:svg="http://www.w3.org/2000/svg"
   xmlns="http://www.w3.org/2000/svg"
   xmlns:sodipodi="http://sodipodi.sourceforge.net/DTD/sodipodi-0.dtd"
   xmlns:inkscape="http://www.inkscape.org/namespaces/inkscape"
   inkscape:version="1.0 (4035a4f, 2020-05-01)"
   height="24"
   width="24"
   sodipodi:docname="settings.svg"
   id="svg115"
   version="1.1"
   y="0px"
   x="0px"
   viewBox="0 0 24 24"
   data-name="Layer 1">
  <metadata
     id="metadata121">
    <rdf:RDF>
      <cc:Work
         rdf:about="">
        <dc:format>image/svg+xml</dc:format>
        <dc:type
           rdf:resource="http://purl.org/dc/dcmitype/StillImage" />
        <dc:title>setng cog</dc:title>
      </cc:Work>
    </rdf:RDF>
  </metadata>
  <defs
     id="defs119" />
  <sodipodi:namedview
     inkscape:document-rotation="0"
     inkscape:current-layer="svg115"
     inkscape:window-maximized="0"
     inkscape:window-y="23"
     inkscape:window-x="0"
     inkscape:cy="19.269039"
     inkscape:cx="14.343706"
     inkscape:zoom="5.9453245"
     showgrid="false"
     id="namedview117"
     inkscape:window-height="917"
     inkscape:window-width="1301"
     inkscape:pageshadow="2"
     inkscape:pageopacity="0"
     guidetolerance="10"
     gridtolerance="10"
     objecttolerance="10"
     borderopacity="1"
     bordercolor="#666666"
     pagecolor="#ffffff" />
  <title
     id="title105">setng cog</title>
  <path
     style="stroke-width:0.240025"
     d="m 23.920238,10.67141 c -0.03841,-0.338434 -0.432044,-0.59046 -0.772879,-0.59046 A 2.6402689,2.6402689 0 0 1 21.332775,5.4700805 0.66726798,0.66726798 0 0 0 21.407182,4.5603878 12.097232,12.097232 0 0 0 19.503788,2.6401922 0.66966822,0.66966822 0 0 0 18.589295,2.7145998 2.7578809,2.7578809 0 0 1 15.59859,3.3890685 2.6738724,2.6738724 0 0 1 13.980825,0.78240292 0.67206846,0.67206846 0 0 0 13.390365,0.07913129 12.090032,12.090032 0 0 0 10.69249,0.07193056 0.66966822,0.66966822 0 0 0 10.09723,0.75600024 2.6666716,2.6666716 0 0 1 8.4530627,3.3146609 2.7842836,2.7842836 0 0 1 5.4815601,2.6401922 0.66726798,0.66726798 0 0 0 4.5766679,2.5657847 11.914814,11.914814 0 0 0 2.6372703,4.4859802 a 0.67446871,0.67446871 0 0 0 0.069607,0.9144932 2.6570707,2.6570707 0 0 1 0.6792692,3.0003057 2.7746827,2.7746827 0 0 1 -2.61146611,1.6129649 0.65286651,0.65286651 0 0 0 -0.69127041,0.59046 11.797201,11.797201 0 0 0 0,2.726677 c 0.03120318,0.350436 0.43924473,0.59046 0.7824797,0.59046 a 2.6402689,2.6402689 0 0 1 2.46745142,1.646569 2.6714722,2.6714722 0 0 1 -0.6696682,2.966702 0.66726798,0.66726798 0 0 0 -0.074408,0.907292 11.871609,11.871609 0 0 0 1.8985934,1.920195 0.66966822,0.66966822 0 0 0 0.9144932,-0.0696 2.7674819,2.7674819 0 0 1 2.9955051,-0.67927 2.6570707,2.6570707 0 0 1 1.6201644,2.604266 0.67206846,0.67206846 0 0 0 0.59046,0.703271 12.363659,12.363659 0 0 0 1.38254,0.07921 11.281149,11.281149 0 0 0 1.317735,-0.0744 0.66966822,0.66966822 0 0 0 0.595261,-0.68887 2.6618712,2.6618712 0 0 1 1.639366,-2.558662 2.7698822,2.7698822 0 0 1 2.964303,0.68407 0.66726798,0.66726798 0 0 0 0.904892,0.0744 12.104434,12.104434 0 0 0 1.939398,-1.920196 0.66966822,0.66966822 0 0 0 -0.06961,-0.914493 2.6402689,2.6402689 0 0 1 1.785782,-4.620471 h 0.148816 a 0.67206846,0.67206846 0 0 0 0.703271,-0.59046 12.298853,12.298853 0 0 0 0,-2.719477 z m -11.902812,5.354946 a 4.0012076,4.0012076 0 1 1 4.001207,-4.001208 4.0060081,4.0060081 0 0 1 -4.001207,4.001208 z"
     id="foreground"
     inkscape:connector-curvature="0" />
  <text
     style="font-weight:bold;font-size:5px;font-family:'Helvetica Neue', Helvetica, Arial-Unicode, Arial, Sans-serif;fill:#000000"
     id="text111"
     font-weight="bold"
     font-size="5px"
     y="113.35858"
     x="-2.2095959">Created by i cons</text>
  <text
     style="font-weight:bold;font-size:5px;font-family:'Helvetica Neue', Helvetica, Arial-Unicode, Arial, Sans-serif;fill:#000000"
     id="text113"
     font-weight="bold"
     font-size="5px"
     y="118.35858"
     x="-2.2095959">from the Noun Project</text>
</svg>
