<?xml version="1.0" encoding="UTF-8" standalone="no"?>
<svg
   xmlns:dc="http://purl.org/dc/elements/1.1/"
   xmlns:cc="http://creativecommons.org/ns#"
   xmlns:rdf="http://www.w3.org/1999/02/22-rdf-syntax-ns#"
   xmlns:svg="http://www.w3.org/2000/svg"
   xmlns="http://www.w3.org/2000/svg"
   xmlns:sodipodi="http://sodipodi.sourceforge.net/DTD/sodipodi-0.dtd"
   xmlns:inkscape="http://www.inkscape.org/namespaces/inkscape"
   data-name="Layer 1"
   viewBox="0 0 100 100"
   x="0px"
   y="0px"
   version="1.1"
   id="svg115"
   sodipodi:docname="settings.svg"
   width="100"
   height="100"
   inkscape:version="0.92.2 5c3e80d, 2017-08-06">
  <metadata
     id="metadata121">
    <rdf:RDF>
      <cc:Work
         rdf:about="">
        <dc:format>image/svg+xml</dc:format>
        <dc:type
           rdf:resource="http://purl.org/dc/dcmitype/StillImage" />
        <dc:title>setng cog</dc:title>
      </cc:Work>
    </rdf:RDF>
  </metadata>
  <defs
     id="defs119" />
  <sodipodi:namedview
     pagecolor="#ffffff"
     bordercolor="#666666"
     borderopacity="1"
     objecttolerance="10"
     gridtolerance="10"
     guidetolerance="10"
     inkscape:pageopacity="0"
     inkscape:pageshadow="2"
     inkscape:window-width="1301"
     inkscape:window-height="917"
     id="namedview117"
     showgrid="false"
     inkscape:zoom="3.168"
     inkscape:cx="-43.499832"
     inkscape:cy="58.592919"
     inkscape:window-x="0"
     inkscape:window-y="0"
     inkscape:window-maximized="0"
     inkscape:current-layer="svg115" />
  <title
     id="title105">setng cog</title>
  <path
     inkscape:connector-curvature="0"
     id="foreground"
     d="m 99.639307,44.469894 c -0.16,-1.41 -1.8,-2.46 -3.22,-2.46 a 11,11 0 0 1 -7.56,-19.21 2.78,2.78 0 0 0 0.31,-3.79 50.4,50.4 0 0 0 -7.93,-8 2.79,2.79 0 0 0 -3.81,0.31 11.49,11.49 0 0 1 -12.46,2.81 11.14,11.14 0 0 1 -6.74,-10.8600001 2.8,2.8 0 0 0 -2.46,-2.92999995 50.37,50.37 0 0 0 -11.24,-0.03 2.79,2.79 0 0 0 -2.48,2.84999995 11.11,11.11 0 0 1 -6.85,10.6600001 11.6,11.6 0 0 1 -12.38,-2.81 2.78,2.78 0 0 0 -3.77,-0.31 49.64,49.64 0 0 0 -8.08,8 2.81,2.81 0 0 0 0.29,3.81 11.07,11.07 0 0 1 2.83,12.5 11.56,11.56 0 0 1 -10.8800004,6.72 2.72,2.72 0 0 0 -2.87999996,2.46 49.15,49.15 0 0 0 0,11.36 c 0.13,1.46 1.82999996,2.46 3.25999996,2.46 a 11,11 0 0 1 10.2800004,6.86 11.13,11.13 0 0 1 -2.79,12.36 2.78,2.78 0 0 0 -0.31,3.78 49.46,49.46 0 0 0 7.91,8 2.79,2.79 0 0 0 3.81,-0.29 11.53,11.53 0 0 1 12.48,-2.83 11.07,11.07 0 0 1 6.75,10.85 2.8,2.8 0 0 0 2.46,2.93 51.51,51.51 0 0 0 5.76,0.33 47,47 0 0 0 5.49,-0.31 2.79,2.79 0 0 0 2.48,-2.87 11.09,11.09 0 0 1 6.83,-10.66 11.54,11.54 0 0 1 12.35,2.85 2.78,2.78 0 0 0 3.77,0.31 50.43,50.43 0 0 0 8.08,-8 2.79,2.79 0 0 0 -0.29,-3.81 11,11 0 0 1 7.44,-19.25 h 0.62 a 2.8,2.8 0 0 0 2.93,-2.46 51.24,51.24 0 0 0 0,-11.33 z m -49.59,22.31 a 16.67,16.67 0 1 1 16.67,-16.67 16.69,16.69 0 0 1 -16.67,16.67 z" />
  <text
     x="-2.2095959"
     y="113.35858"
     font-size="5px"
     font-weight="bold"
     id="text111"
     style="font-weight:bold;font-size:5px;font-family:'Helvetica Neue', Helvetica, Arial-Unicode, Arial, Sans-serif;fill:#000000">Created by i cons</text>
  <text
     x="-2.2095959"
     y="118.35858"
     font-size="5px"
     font-weight="bold"
     id="text113"
     style="font-weight:bold;font-size:5px;font-family:'Helvetica Neue', Helvetica, Arial-Unicode, Arial, Sans-serif;fill:#000000">from the Noun Project</text>
</svg>
